<svg width="36" height="35" viewBox="0 0 36 35" fill="none" xmlns="http://www.w3.org/2000/svg">
<rect x="1.84387" y="1" width="32.268" height="32.3006" rx="16.134" stroke="#374151" stroke-width="2"/>
<path d="M23.9836 25.8209C25.2136 25.3456 26.1861 24.3731 26.6614 23.1431C26.8863 22.5604 27.0438 21.8956 27.0866 20.9231C27.0967 20.6954 27.1046 20.5041 27.1119 20.3123V13.8151C27.1068 13.6795 27.1012 13.5383 27.0939 13.3797C27.0511 12.4073 26.8936 11.7391 26.6687 11.1598C26.4364 10.545 26.0787 9.99441 25.6107 9.53715C25.1529 9.07201 24.5989 8.71092 23.9909 8.48257C23.4082 8.2576 22.7434 8.10012 21.771 8.05737C20.7912 8.01069 20.4802 8 17.9959 8C15.5116 8 15.2 8.01069 14.2242 8.05343C13.2517 8.09618 12.5835 8.25366 12.0042 8.47864C11.3895 8.71092 10.8388 9.06863 10.381 9.53715C9.91644 9.99497 9.55536 10.549 9.32644 11.1564C9.10147 11.7391 8.94399 12.4039 8.90124 13.3763C8.85456 14.3561 8.84387 14.6671 8.84387 17.152C8.84387 19.6369 8.85456 19.9479 8.8973 20.9237C8.94005 21.8962 9.09753 22.5649 9.32307 23.1437C9.55536 23.7584 9.91644 24.309 10.381 24.7668C10.8388 25.2314 11.3928 25.5931 12.0008 25.8214C12.5835 26.0464 13.2483 26.2039 14.2208 26.2466C15.1966 26.2899 15.5076 26.3006 17.9925 26.3006C20.4773 26.3006 20.7878 26.2899 21.7642 26.2466C22.7367 26.2039 23.4043 26.0458 23.9836 25.8209ZM17.9992 24.6555C15.5571 24.6555 15.2641 24.6448 14.3023 24.6021C13.4086 24.5627 12.9261 24.4125 12.6043 24.2877C12.2078 24.1409 11.8467 23.9086 11.5531 23.6049C11.2494 23.3079 11.0166 22.9507 10.8703 22.5537C10.7455 22.2319 10.5953 21.7454 10.5559 20.8557C10.5132 19.8905 10.5025 19.6009 10.5025 17.1587C10.5025 14.7166 10.5132 14.4236 10.5559 13.4624C10.5953 12.5687 10.7455 12.0861 10.8703 11.7644C11.0171 11.3673 11.2494 11.0062 11.5571 10.7132C11.8535 10.4095 12.2112 10.1772 12.6077 10.0304C12.9294 9.90554 13.4159 9.75537 14.3057 9.716C15.2709 9.67325 15.5605 9.66257 18.0021 9.66257C20.4436 9.66257 20.7372 9.67325 21.699 9.716C22.5927 9.75537 23.0753 9.90554 23.397 10.0304C23.7935 10.1772 24.1546 10.4095 24.4476 10.7132C24.7513 11.0102 24.9842 11.3673 25.1304 11.7644C25.2553 12.0861 25.4054 12.5721 25.4448 13.4624C25.4876 14.4275 25.4982 14.7172 25.4982 17.1587C25.4982 19.6003 25.4876 19.8866 25.4448 20.8517C25.4054 21.7454 25.2553 22.228 25.1304 22.5497C24.8228 23.3473 24.19 23.98 23.393 24.2871C23.0713 24.412 22.5854 24.5621 21.695 24.6015C20.7299 24.6442 20.4408 24.6555 17.9992 24.6555Z" fill="#374151"/>
<path d="M17.9961 12.4501C15.4004 12.4501 13.2946 14.5558 13.2946 17.1515C13.2946 19.7471 15.4004 21.8529 17.9961 21.8529C20.5917 21.8529 22.6969 19.7471 22.6969 17.1515C22.6969 14.5558 20.5912 12.4501 17.9961 12.4501ZM17.9961 20.2005C16.3121 20.2005 14.9465 18.8349 14.9465 17.1509C14.9465 15.467 16.3121 14.1014 17.9961 14.1014C19.68 14.1014 21.0456 15.467 21.0456 17.1509C21.0456 18.8349 19.68 20.2005 17.9961 20.2005Z" fill="#374151"/>
<path d="M23.9792 12.2642C23.9792 11.6579 23.4876 11.1669 22.8813 11.1669C22.275 11.1669 21.784 11.6584 21.784 12.2642C21.784 12.8699 22.2756 13.3615 22.8813 13.3615C23.4871 13.3615 23.9792 12.8705 23.9792 12.2642Z" fill="#374151"/>
</svg>
