<svg width="31" height="31" viewBox="0 0 31 31" fill="none" xmlns="http://www.w3.org/2000/svg">
<rect x="1.0993" y="1.02246" width="28.9007" height="28.2553" rx="14.1276" stroke="#374151" stroke-width="2"/>
<path d="M11.4818 22.2777V12.6592H8.28758V22.2777H11.4818ZM9.88536 11.3461C10.999 11.3461 11.6924 10.6075 11.6924 9.6845C11.6715 8.74044 10.999 8.02246 9.90654 8.02246C8.81331 8.02246 8.0993 8.74044 8.0993 9.68442C8.0993 10.6075 8.79238 11.346 9.86443 11.346L9.88536 11.3461ZM13.2499 22.2777H16.4438V16.9069C16.4438 16.6198 16.4647 16.3319 16.5491 16.1269C16.7799 15.5523 17.3054 14.9575 18.188 14.9575C19.3436 14.9575 19.8061 15.8395 19.8061 17.1326V22.2777H23V16.7627C23 13.8084 21.4244 12.4337 19.3229 12.4337C17.5999 12.4337 16.8432 13.3975 16.4228 14.054H16.4441V12.6595H13.25C13.2917 13.5618 13.2499 22.2777 13.2499 22.2777Z" fill="#374151"/>
</svg>
